<svg width="13" height="8" viewBox="0 0 13 8" fill="none" xmlns="http://www.w3.org/2000/svg">
<g clip-path="url(#clip0_1122_589)">
<path d="M11.2388 0.100708C11.285 0.100708 11.3312 0.100708 11.3774 0.100708C11.3842 0.102288 11.391 0.105054 11.3983 0.105845C11.6633 0.12323 11.8872 0.21885 12.0748 0.38006C12.2787 0.555099 12.4812 0.730533 12.681 0.908733C12.9579 1.15568 13.0508 1.45242 12.9742 1.78907C12.9316 1.97477 12.8165 2.12531 12.6638 2.25808C10.8704 3.81999 9.07784 5.3831 7.2853 6.94581C7.2708 6.95845 7.25584 6.9711 7.24089 6.98374C7.0388 7.15285 6.79865 7.24057 6.51771 7.24373C6.23179 7.24689 5.98167 7.16984 5.77822 6.99204C3.95215 5.40088 2.12698 3.80972 0.302271 2.21777C0.255147 2.17668 0.210741 2.13203 0.173585 2.08422C-0.0969273 1.7373 -0.0475372 1.24775 0.289584 0.943504C0.501191 0.753055 0.71461 0.564187 0.930295 0.377294C1.07801 0.248879 1.25382 0.161162 1.45999 0.124415C1.51437 0.114537 1.56965 0.10861 1.62447 0.100708H1.76313C1.81841 0.10782 1.87369 0.112957 1.92806 0.122835C2.13967 0.160767 2.31412 0.255596 2.46546 0.387962C3.79809 1.55081 5.13162 2.71286 6.4647 3.87531C6.47557 3.88479 6.48237 3.89783 6.49143 3.90929H6.50956C6.51952 3.89704 6.52723 3.88321 6.53901 3.87294C7.87299 2.7097 9.20698 1.54686 10.541 0.383616C10.6769 0.265079 10.8328 0.175781 11.0204 0.134689C11.092 0.118489 11.1658 0.111771 11.2388 0.100708Z" fill="#0000FF"/>
</g>
<defs>
<clipPath id="clip0_1122_589">
<rect width="13" height="7.14263" fill="white" transform="translate(0 0.100708)"/>
</clipPath>
</defs>
</svg>
