<svg width="21" height="21" viewBox="0 0 21 21" fill="none" xmlns="http://www.w3.org/2000/svg">
<g clip-path="url(#clip0_1122_571)">
<path d="M21 3.76895V20.2104H0V2.89038C0.995543 2.90356 1.99075 2.91642 2.99888 2.9296C2.99888 3.15583 2.99752 3.36449 2.99888 3.57284C3.00399 4.23835 3.27763 4.78808 3.82799 5.22203C4.60571 5.83483 5.85618 5.84393 6.64138 5.24682C7.22271 4.80471 7.50112 4.23804 7.50282 3.54899C7.50316 3.34661 7.50282 3.14391 7.50282 2.93619H13.5139C13.5139 3.21827 13.4979 3.48969 13.5166 3.75891C13.6041 5.02561 14.9049 5.91924 16.2466 5.64218C17.2442 5.43603 17.9736 4.62021 18.0011 3.67481C18.0083 3.43101 18.0021 3.18658 18.0021 2.94529C18.0382 2.93525 18.0539 2.92709 18.0695 2.92709C18.9994 2.92615 19.9292 2.92646 20.8588 2.92395C20.9612 2.92395 20.9799 2.97008 20.9809 3.05009C20.984 3.28981 20.9929 3.52954 20.9993 3.76926L21 3.76895ZM10.4993 7.76203C7.58383 7.76203 4.66867 7.76203 1.75318 7.76203C1.58595 7.76203 1.50222 7.83775 1.50199 7.9892C1.50199 11.5348 1.50199 15.0805 1.50199 18.6261C1.50199 18.764 1.57596 18.833 1.72391 18.8332C7.57157 18.8332 13.4192 18.8332 19.2669 18.8332C19.4228 18.8332 19.5008 18.7625 19.5011 18.6211C19.5011 15.0701 19.5011 11.5195 19.5011 7.96849C19.5011 7.83106 19.4271 7.76234 19.2792 7.76234C16.3524 7.76234 13.4257 7.76234 10.499 7.76234L10.4993 7.76203Z" fill="#0000FF"/>
<path d="M15.9625 0.568115C16.1766 0.657854 16.4111 0.720923 16.6007 0.842981C17.0135 1.10812 17.2035 1.49657 17.2035 1.95845C17.2035 2.47021 17.212 2.9826 17.1854 3.49311C17.1439 4.29292 16.1997 4.88093 15.3645 4.67008C14.7849 4.52386 14.274 4.04002 14.2604 3.41059C14.2488 2.88345 14.2379 2.35506 14.2679 1.82917C14.3029 1.21229 14.7587 0.746025 15.4084 0.600748C15.4462 0.592276 15.4829 0.579097 15.5204 0.568115C15.6678 0.568115 15.8155 0.568115 15.9629 0.568115L15.9625 0.568115Z" fill="#0000FF"/>
<path d="M5.4458 0.568115C5.79297 0.659423 6.11495 0.786815 6.3549 1.05321C6.57817 1.30109 6.69559 1.58631 6.70002 1.90197C6.70751 2.43475 6.71874 2.96942 6.68232 3.50064C6.63603 4.17871 6.01999 4.68137 5.25657 4.71024C4.57211 4.73628 3.91148 4.25841 3.78691 3.63117C3.75151 3.45295 3.75525 3.26657 3.75491 3.08395C3.75457 2.66601 3.75696 2.24774 3.76887 1.8298C3.78521 1.24775 4.2743 0.735043 4.91042 0.600434C4.94242 0.593531 4.97237 0.579097 5.003 0.568115C5.15038 0.568115 5.29809 0.568115 5.44546 0.568115L5.4458 0.568115Z" fill="#0000FF"/>
<path d="M6.10416 17.6255H3.76523C3.7608 17.5678 3.75332 17.517 3.75332 17.4664C3.75264 16.9333 3.7574 16.4002 3.74957 15.8675C3.74753 15.7338 3.7962 15.7015 3.93405 15.7024C4.60285 15.7084 5.27165 15.7074 5.94045 15.703C6.06706 15.7021 6.11982 15.7256 6.11777 15.8571C6.10995 16.3952 6.11505 16.9337 6.11437 17.4718C6.11437 17.5179 6.10824 17.564 6.10382 17.6255H6.10416Z" fill="#0000FF"/>
<path d="M11.328 17.6245C11.328 17.5178 11.328 17.4249 11.328 17.3321C11.328 16.8457 11.3321 16.3594 11.3253 15.873C11.3236 15.7475 11.3556 15.7001 11.5026 15.7017C12.1775 15.7083 12.8524 15.7045 13.5277 15.7051C13.5774 15.7051 13.6268 15.7114 13.6955 15.7161C13.6955 15.7783 13.6955 15.8294 13.6955 15.8805C13.6955 16.4089 13.6918 16.937 13.6979 17.4651C13.6992 17.5903 13.6679 17.6383 13.5202 17.6367C12.8453 17.6298 12.1704 17.6339 11.4951 17.6333C11.4505 17.6333 11.4059 17.6289 11.328 17.6248V17.6245Z" fill="#0000FF"/>
<path d="M7.51855 17.6333V15.7117C7.58492 15.7089 7.6404 15.7048 7.69622 15.7045C8.35958 15.7042 9.02293 15.7086 9.68595 15.7007C9.84149 15.6989 9.87552 15.7478 9.87382 15.8805C9.86668 16.4083 9.8677 16.9364 9.87382 17.4641C9.87518 17.5881 9.84591 17.6377 9.69718 17.6361C9.02259 17.6289 8.348 17.633 7.67342 17.633H7.5189L7.51855 17.6333Z" fill="#0000FF"/>
<path d="M17.2205 15.7186V17.6235C17.1684 17.6267 17.1194 17.6326 17.0704 17.6326C16.3965 17.6333 15.7226 17.6292 15.0487 17.6364C14.9016 17.638 14.869 17.5909 14.8707 17.4657C14.8771 16.9279 14.8748 16.3901 14.8731 15.8523C14.8731 15.7651 14.8782 15.7026 15.0048 15.7033C15.7185 15.7073 16.4319 15.7054 17.1456 15.7061C17.1674 15.7061 17.1888 15.713 17.2208 15.7186H17.2205Z" fill="#0000FF"/>
<path d="M6.11558 12.4746C6.11558 12.869 6.11558 13.2599 6.11558 13.6509C6.11558 13.8495 6.1115 14.0481 6.11695 14.2464C6.11967 14.3425 6.08087 14.3726 5.97842 14.372C5.28171 14.3688 4.58466 14.3688 3.88795 14.372C3.78244 14.3723 3.75113 14.3356 3.75147 14.243C3.75453 13.6842 3.75385 13.125 3.75215 12.5662C3.75215 12.4906 3.77359 12.4513 3.86617 12.4517C4.59691 12.4545 5.32766 12.4545 6.05874 12.4557C6.0693 12.4557 6.07985 12.4626 6.11524 12.4752L6.11558 12.4746Z" fill="#0000FF"/>
<path d="M8.67962 11.1759C8.33961 11.1759 7.99925 11.1718 7.65923 11.1781C7.53841 11.1803 7.50437 11.1411 7.50539 11.0335C7.51016 10.49 7.51016 9.94623 7.50539 9.40277C7.50437 9.28918 7.54045 9.24651 7.66876 9.24745C8.3488 9.25184 9.02917 9.25184 9.70954 9.24745C9.8382 9.24651 9.87462 9.29138 9.87359 9.40434C9.86917 9.94779 9.86883 10.4916 9.87359 11.035C9.87462 11.1445 9.83616 11.1803 9.71737 11.1781C9.37157 11.1721 9.02577 11.1759 8.67996 11.1759H8.67962Z" fill="#0000FF"/>
<path d="M12.4982 11.1758C12.1586 11.1758 11.8185 11.1714 11.4789 11.178C11.357 11.1805 11.325 11.1397 11.3257 11.0334C11.3301 10.4906 11.3305 9.94741 11.3257 9.40427C11.3247 9.29194 11.358 9.24675 11.4877 9.2477C12.1729 9.25209 12.858 9.25177 13.5435 9.2477C13.666 9.24707 13.697 9.29162 13.6963 9.39611C13.6925 9.93925 13.6915 10.4821 13.697 11.0252C13.698 11.1397 13.6643 11.1812 13.5343 11.178C13.1892 11.1705 12.8434 11.1755 12.4979 11.1755L12.4982 11.1758Z" fill="#0000FF"/>
<path d="M17.2309 11.1762C16.9565 11.1762 16.7084 11.1762 16.4603 11.1762C15.9899 11.1762 15.5199 11.173 15.0495 11.1787C14.9226 11.1802 14.8685 11.1545 14.8702 11.024C14.8773 10.4862 14.8763 9.94805 14.8708 9.40993C14.8695 9.28756 14.9113 9.24645 15.0454 9.24771C15.7197 9.25273 16.3936 9.24959 17.0678 9.25022C17.1444 9.25022 17.2322 9.23296 17.2316 9.35094C17.2295 9.95088 17.2305 10.5508 17.2305 11.1762H17.2309Z" fill="#0000FF"/>
<path d="M11.3389 14.3512V12.4623H13.6819C13.687 12.5131 13.6952 12.5583 13.6952 12.6035C13.6962 13.1419 13.6952 13.6803 13.6962 14.2188C13.6962 14.3022 13.6999 14.3722 13.5689 14.3713C12.8545 14.3672 12.1401 14.3694 11.4257 14.3681C11.3988 14.3681 11.3722 14.3581 11.3389 14.3512Z" fill="#0000FF"/>
<path d="M7.50688 12.452C7.64643 12.452 7.76385 12.452 7.88161 12.452C8.48779 12.452 9.0943 12.4555 9.70048 12.4495C9.83424 12.4482 9.87542 12.484 9.87406 12.6079C9.86759 13.1461 9.86793 13.6842 9.87406 14.2223C9.87542 14.3422 9.82982 14.3729 9.70661 14.372C9.02657 14.3676 8.34654 14.3701 7.66685 14.3698C7.58789 14.3698 7.50552 14.3823 7.50586 14.2659C7.50858 13.6707 7.50722 13.0755 7.50722 12.452H7.50688Z" fill="#0000FF"/>
<path d="M17.2197 14.3698C17.0546 14.3698 16.9028 14.3698 16.751 14.3698C16.1782 14.3698 15.6054 14.3685 15.0326 14.3704C14.9369 14.3704 14.8706 14.3644 14.8716 14.248C14.8764 13.6782 14.8743 13.1081 14.875 12.538C14.875 12.5179 14.8815 12.4978 14.8872 12.4648H17.2197V14.3694V14.3698Z" fill="#0000FF"/>
</g>
<defs>
<clipPath id="clip0_1122_571">
<rect width="21" height="19.6422" fill="white" transform="translate(0 0.568115)"/>
</clipPath>
</defs>
</svg>
