<svg width="124" height="21" viewBox="0 0 124 21" fill="none" xmlns="http://www.w3.org/2000/svg">
<path d="M3.29697 5.05969C2.95027 7.05469 3.62404 9.86344 5.19399 12.6066C6.77703 15.3497 8.8703 17.3381 10.7608 18.0469V2.95312C7.60125 2.95312 4.82767 3.77344 3.28389 5.05969H3.29697Z" fill="#070DE9"/>
<path d="M16.3078 12.6066C17.8908 9.86344 18.5515 7.05469 18.2245 5.05969C16.6807 3.78656 13.9267 2.95312 10.7476 2.95312V18.0469C12.638 17.3447 14.7379 15.3562 16.3143 12.6066H16.3078Z" fill="#E9D100"/>
<path d="M28.6776 4.74468C29.564 4.73704 30.4392 4.94416 31.2288 5.34843C32.0289 5.76761 32.6886 6.41343 33.1258 7.20562C33.6354 8.1605 33.8837 9.2338 33.8454 10.3162C33.884 11.3987 33.6357 12.4721 33.1258 13.4269C32.6872 14.2164 32.0277 14.8598 31.2288 15.2775C30.4392 15.6818 29.564 15.8889 28.6776 15.8812H25.2041V4.74468H28.6776ZM30.6858 13.1512C31.3967 12.6087 31.7521 11.6637 31.7521 10.3162C31.7521 8.96875 31.3967 8.02156 30.6858 7.47468C29.9171 6.91056 28.9819 6.62168 28.03 6.65437H27.2647V13.9781H28.03C28.9811 14.0127 29.9163 13.7262 30.6858 13.1644V13.1512ZM35.0948 13.8403C34.8269 13.2187 34.6888 12.5487 34.6888 11.8716C34.6888 11.1944 34.8269 10.5244 35.0948 9.90281C35.3634 9.27485 35.8033 8.73573 36.3638 8.3475C37.0039 7.92132 37.7614 7.70782 38.5291 7.73718C39.2319 7.70634 39.9274 7.89071 40.5232 8.26579C41.1191 8.64088 41.5872 9.18893 41.8652 9.83718C42.1244 10.4241 42.2581 11.059 42.2577 11.7009V12.5081H36.7563C36.7717 12.9832 36.9602 13.4362 37.2862 13.7812C37.4605 13.9627 37.6716 14.1046 37.9051 14.1975C38.1387 14.2903 38.3894 14.3318 38.6403 14.3194C39.0349 14.3335 39.4246 14.2284 39.7589 14.0175C40.0996 13.7718 40.3794 13.4507 40.5765 13.0791L42.1661 13.6697C41.892 14.4009 41.39 15.0239 40.7347 15.446C40.0794 15.868 39.3059 16.0667 38.5291 16.0125C37.8034 16.0487 37.0844 15.8595 36.4698 15.4708C35.8552 15.0821 35.3751 14.5127 35.0948 13.8403ZM39.6804 9.84375C39.528 9.69713 39.3471 9.58359 39.149 9.5102C38.9509 9.43681 38.7399 9.40515 38.5291 9.41718C38.3162 9.41066 38.1042 9.44676 37.9054 9.52338C37.7066 9.6 37.525 9.71561 37.3712 9.86343C37.0694 10.1528 36.8696 10.5329 36.8021 10.9462H40.2429C40.1657 10.5319 39.9703 10.1489 39.6804 9.84375ZM48.6422 4.73812L51.1345 12.9806L53.6202 4.73812H55.9097L52.1811 15.8747H50.0878L46.3592 4.73812H48.6422ZM55.3537 13.9847C55.0236 13.3279 54.8575 12.6005 54.8696 11.865C54.8586 11.1317 55.0247 10.4067 55.3537 9.75187C55.67 9.13169 56.1585 8.6166 56.7601 8.26875C57.4293 7.91361 58.1749 7.72797 58.9319 7.72797C59.6889 7.72797 60.4345 7.91361 61.1037 8.26875C61.7055 8.6163 62.1941 9.13147 62.5101 9.75187C62.8396 10.4065 63.0057 11.1317 62.9941 11.865C63.0068 12.6005 62.8407 13.3281 62.5101 13.9847C62.1934 14.6029 61.7048 15.1158 61.1037 15.4612C60.4345 15.8164 59.6889 16.002 58.9319 16.002C58.1749 16.002 57.4293 15.8164 56.7601 15.4612C56.1592 15.1155 55.6707 14.6027 55.3537 13.9847ZM60.927 11.865C60.9477 11.2414 60.7587 10.6289 60.3906 10.1259C60.216 9.90583 59.9942 9.72808 59.7416 9.6059C59.4891 9.48373 59.2123 9.42028 58.9319 9.42028C58.6515 9.42028 58.3747 9.48373 58.1222 9.6059C57.8696 9.72808 57.6477 9.90583 57.4731 10.1259C57.1027 10.628 56.9115 11.2406 56.9302 11.865C56.9105 12.4915 57.1018 13.1065 57.4731 13.6106C57.6477 13.8307 57.8696 14.0085 58.1222 14.1307C58.3747 14.2528 58.6515 14.3163 58.9319 14.3163C59.2123 14.3163 59.4891 14.2528 59.7416 14.1307C59.9942 14.0085 60.216 13.8307 60.3906 13.6106C60.7597 13.1056 60.9486 12.4908 60.927 11.865ZM64.3809 13.9847C64.0508 13.3279 63.8847 12.6005 63.8969 11.865C63.8838 11.1323 64.0476 10.4073 64.3744 9.75187C64.6907 9.13169 65.1792 8.6166 65.7808 8.26875C66.45 7.91361 67.1955 7.72797 67.9526 7.72797C68.7096 7.72797 69.4552 7.91361 70.1243 8.26875C70.7262 8.6163 71.2147 9.13147 71.5308 9.75187C71.8603 10.4065 72.0264 11.1317 72.0148 11.865C72.0275 12.6005 71.8613 13.3281 71.5308 13.9847C71.214 14.6029 70.7255 15.1158 70.1243 15.4612C69.4552 15.8164 68.7096 16.002 67.9526 16.002C67.1955 16.002 66.45 15.8164 65.7808 15.4612C65.182 15.1148 64.6959 14.602 64.3809 13.9847ZM69.9543 11.865C69.9725 11.2407 69.7813 10.6283 69.4113 10.1259C69.2367 9.90583 69.0149 9.72808 68.7623 9.6059C68.5097 9.48373 68.233 9.42028 67.9526 9.42028C67.6722 9.42028 67.3954 9.48373 67.1428 9.6059C66.8903 9.72808 66.6684 9.90583 66.4938 10.1259C66.1262 10.6291 65.9373 11.2414 65.9574 11.865C65.9358 12.4908 66.1248 13.1056 66.4938 13.6106C66.6684 13.8307 66.8903 14.0085 67.1428 14.1307C67.3954 14.2528 67.6722 14.3163 67.9526 14.3163C68.233 14.3163 68.5097 14.2528 68.7623 14.1307C69.0149 14.0085 69.2367 13.8307 69.4113 13.6106C69.7827 13.1065 69.974 12.4915 69.9543 11.865ZM74.965 7.86187V9.16125C75.2257 8.73096 75.5844 8.36886 76.0117 8.10468C76.4069 7.86016 76.8621 7.73066 77.3265 7.73062C77.6551 7.73537 77.9813 7.78843 78.2946 7.88812L77.9283 9.72562C77.6805 9.57303 77.3949 9.49343 77.1041 9.49593C76.797 9.49691 76.4951 9.5756 76.2264 9.72473C75.9577 9.87386 75.7308 10.0886 75.5668 10.3491C75.1038 11.1635 74.8942 12.0982 74.965 13.0331V15.8747H73.0026V7.86187H74.965ZM81.114 4.61343V9.14156C81.3754 8.72053 81.7345 8.36927 82.1606 8.11781C82.6114 7.85603 83.1247 7.72219 83.6455 7.73062C84.3116 7.69046 84.9674 7.909 85.4772 8.34093C85.7089 8.57726 85.8878 8.8605 86.0017 9.17172C86.1157 9.48294 86.1621 9.81497 86.1378 10.1456V15.8747H84.1754V10.8478C84.2036 10.4628 84.0972 10.0799 83.8745 9.765C83.7605 9.64349 83.6209 9.54916 83.4658 9.48897C83.3107 9.42878 83.1441 9.40425 82.9783 9.41718C82.649 9.42071 82.3307 9.53642 82.0756 9.74531C81.7574 10.0182 81.518 10.3718 81.3822 10.7691C81.1852 11.3202 81.0921 11.9032 81.1075 12.4884V15.8747H79.145V4.62L81.114 4.61343ZM87.6228 13.9847C87.2927 13.3279 87.1265 12.6005 87.1387 11.865C87.1276 11.1317 87.2937 10.4067 87.6228 9.75187C87.9373 9.13259 88.4234 8.61759 89.0226 8.26875C89.6926 7.91249 90.4394 7.72623 91.1977 7.72623C91.9559 7.72623 92.7027 7.91249 93.3727 8.26875C93.9719 8.61759 94.458 9.13259 94.7726 9.75187C95.1016 10.4067 95.2677 11.1317 95.2566 11.865C95.2688 12.6005 95.1027 13.3279 94.7726 13.9847C94.4573 14.6018 93.9712 15.1145 93.3727 15.4612C92.7027 15.8175 91.9559 16.0038 91.1977 16.0038C90.4394 16.0038 89.6926 15.8175 89.0226 15.4612C88.4241 15.1145 87.938 14.6018 87.6228 13.9847ZM93.1961 11.865C93.2162 11.2414 93.0273 10.6291 92.6597 10.1259C92.4851 9.90464 92.263 9.72584 92.0098 9.60291C91.7566 9.47999 91.4789 9.41614 91.1977 9.41614C90.9164 9.41614 90.6387 9.47999 90.3856 9.60291C90.1324 9.72584 89.9102 9.90464 89.7356 10.1259C89.368 10.6291 89.1791 11.2414 89.1992 11.865C89.1777 12.4908 89.3666 13.1056 89.7356 13.6106C89.9102 13.8319 90.1324 14.0107 90.3856 14.1336C90.6387 14.2566 90.9164 14.3204 91.1977 14.3204C91.4789 14.3204 91.7566 14.2566 92.0098 14.1336C92.263 14.0107 92.4851 13.8319 92.6597 13.6106C93.0287 13.1056 93.2177 12.4908 93.1961 11.865ZM96.5649 13.8337C96.2975 13.2121 96.1595 12.5421 96.1595 11.865C96.1595 11.1879 96.2975 10.5179 96.5649 9.89625C96.8335 9.26829 97.2734 8.72917 97.834 8.34093C98.4741 7.91476 99.2315 7.70125 99.9992 7.73062C100.702 7.69978 101.398 7.88415 101.993 8.25923C102.589 8.63431 103.057 9.18237 103.335 9.83062C103.595 10.4175 103.728 11.0524 103.728 11.6944V12.5016H98.2265C98.2401 12.9758 98.4262 13.4287 98.7498 13.7747C98.9251 13.9567 99.1373 14.0989 99.372 14.1917C99.6067 14.2845 99.8585 14.3258 100.11 14.3128C100.505 14.327 100.895 14.2218 101.229 14.0109C101.569 13.7673 101.849 13.4484 102.047 13.0791L103.636 13.6697C103.361 14.3997 102.859 15.0212 102.203 15.4421C101.548 15.8629 100.775 16.0606 99.9992 16.0059C99.2315 16.0353 98.4741 15.8218 97.834 15.3956C97.2727 15.0053 96.8328 14.4639 96.5649 13.8337ZM101.144 9.84375C100.992 9.69796 100.813 9.5849 100.616 9.51153C100.419 9.43817 100.209 9.40606 99.9992 9.41718C99.7863 9.41066 99.5743 9.44676 99.3755 9.52338C99.1767 9.6 98.9951 9.71561 98.8414 9.86343C98.5399 10.1531 98.3402 10.5331 98.2723 10.9462H101.713C101.635 10.532 101.44 10.1491 101.151 9.84375H101.144ZM104.696 11.865C104.637 10.783 104.959 9.71462 105.605 8.84625C105.919 8.47244 106.315 8.17704 106.763 7.98341C107.21 7.78978 107.696 7.70324 108.183 7.73062C108.609 7.72417 109.032 7.80686 109.425 7.97343C109.755 8.10268 110.047 8.31246 110.276 8.58375V4.62H112.238V15.8812H110.276V15.0544C110.097 15.3441 109.834 15.5729 109.524 15.7106C109.108 15.9192 108.647 16.0228 108.183 16.0125C107.696 16.0391 107.209 15.9515 106.762 15.7567C106.314 15.562 105.918 15.2653 105.605 14.8903C104.957 14.0228 104.633 12.9544 104.689 11.8716L104.696 11.865ZM110.452 11.865C110.489 11.2211 110.304 10.5842 109.929 10.0603C109.775 9.8564 109.575 9.69189 109.345 9.58014C109.116 9.4684 108.863 9.41256 108.608 9.41718C108.352 9.41309 108.098 9.46912 107.868 9.58078C107.637 9.69245 107.436 9.85667 107.28 10.0603C106.902 10.5828 106.717 11.2207 106.757 11.865C106.719 12.507 106.904 13.1422 107.28 13.6631C107.437 13.8658 107.638 14.0301 107.867 14.1436C108.097 14.257 108.349 14.3166 108.605 14.3179C108.86 14.3191 109.113 14.262 109.344 14.1509C109.574 14.0397 109.777 13.8774 109.936 13.6762C110.31 13.1497 110.492 12.5103 110.452 11.865ZM113.625 13.8337C113.358 13.2121 113.22 12.5421 113.22 11.865C113.22 11.1879 113.358 10.5179 113.625 9.89625C113.906 9.22505 114.387 8.65708 115.001 8.2696C115.616 7.88211 116.334 7.69392 117.059 7.73062C117.762 7.69978 118.458 7.88415 119.054 8.25923C119.649 8.63431 120.117 9.18237 120.395 9.83062C120.655 10.4175 120.788 11.0524 120.788 11.6944V12.5016H115.28C115.297 12.9776 115.488 13.4306 115.816 13.7747C115.991 13.9562 116.202 14.0981 116.435 14.1909C116.669 14.2837 116.92 14.3253 117.171 14.3128C117.565 14.3274 117.955 14.2222 118.289 14.0109C118.63 13.7654 118.91 13.4442 119.107 13.0725L120.696 13.6631C120.422 14.3943 119.92 15.0173 119.265 15.4394C118.61 15.8615 117.836 16.0602 117.059 16.0059C116.334 16.0421 115.615 15.853 115 15.4642C114.386 15.0755 113.905 14.5062 113.625 13.8337ZM118.204 9.84375C118.052 9.69796 117.873 9.5849 117.676 9.51153C117.479 9.43817 117.269 9.40606 117.059 9.41718C116.846 9.41066 116.634 9.44676 116.436 9.52338C116.237 9.6 116.055 9.71561 115.901 9.86343C115.6 10.1528 115.4 10.5329 115.332 10.9462H118.773C118.697 10.5316 118.501 10.1485 118.211 9.84375H118.204Z" fill="#070DE9"/>
<path d="M14.4892 5.42719C14.0277 5.2963 13.5578 5.19763 13.0828 5.13188C13.0876 5.34659 13.0789 5.5614 13.0566 5.775C13.015 6.28408 12.9583 6.79181 12.8865 7.2975C13.1766 7.38464 13.4555 7.50579 13.7173 7.65844C13.7132 8.01525 13.6649 8.37017 13.5734 8.715C13.4072 9.3725 13.1425 10.0009 12.7884 10.5788C12.4803 11.1754 12.0783 11.7183 11.5978 12.1866C11.338 12.4306 11.0529 12.6462 10.7475 12.8297C10.4431 12.6506 10.1619 12.4346 9.91014 12.1866C9.42592 11.7138 9.01375 11.172 8.68689 10.5788C8.34084 9.99678 8.07668 9.36958 7.90191 8.715C7.81459 8.36989 7.77497 8.01438 7.78417 7.65844C8.0386 7.50043 8.31383 7.37893 8.60185 7.2975C8.5338 6.79156 8.47927 6.28388 8.43831 5.775C8.43831 5.54531 8.41869 5.32875 8.40561 5.11875C7.92154 5.21719 7.45055 5.31563 7.01227 5.43375C6.36987 5.60522 5.75369 5.86352 5.18066 6.20156C5.18527 6.86838 5.27318 7.53199 5.44232 8.17688C5.76006 9.4024 6.24663 10.5775 6.88799 11.6681C7.51373 12.7643 8.28383 13.7708 9.1775 14.6606C9.64675 15.1303 10.1718 15.5403 10.7409 15.8813C11.3195 15.5481 11.8518 15.1399 12.3239 14.6672C13.2142 13.7719 13.9839 12.7637 14.6135 11.6681C15.2539 10.5801 15.7384 9.40704 16.0526 8.18344C16.2313 7.53824 16.3193 6.87118 16.3142 6.20156C15.7409 5.86877 15.1276 5.61075 14.4892 5.43375V5.42719Z" fill="white"/>
</svg>
