<svg width="23" height="17" viewBox="0 0 23 17" fill="none" xmlns="http://www.w3.org/2000/svg">
<path d="M14.0165 1.59283C14.1968 1.59338 14.3697 1.64486 14.4977 1.73619L21.304 6.62997C21.432 6.72259 21.5039 6.84788 21.5039 6.97847C21.5039 7.10906 21.432 7.23435 21.304 7.32697C21.0312 7.51774 20.7084 7.66757 20.3543 7.76772C20.0002 7.86786 19.6219 7.91632 19.2415 7.91027C18.994 7.91027 18.7809 7.89049 18.609 7.87072L14.2984 10.9652C14.4084 11.2964 14.484 11.6325 14.5184 11.9687C14.5802 12.6607 14.4702 13.6395 13.5284 14.3167C13.4644 14.363 13.3884 14.3998 13.3046 14.4249C13.2209 14.45 13.131 14.4629 13.0402 14.4629C12.9495 14.4629 12.8596 14.45 12.7758 14.4249C12.6921 14.3998 12.616 14.363 12.5521 14.3167L8.66773 11.5188L4.29523 14.6676C4.02023 14.8604 2.61086 15.5574 2.34961 15.3646C2.07461 15.1768 3.05086 14.1585 3.31898 13.9657L7.69836 10.8218L3.80711 8.02396C3.68114 7.93156 3.61058 7.80733 3.61058 7.67794C3.61058 7.54855 3.68114 7.42431 3.80711 7.33191C4.74898 6.64975 6.10336 6.57066 7.07273 6.61514C7.54023 6.63986 8.00773 6.69424 8.46836 6.77333L12.7721 3.67393C12.7364 3.52368 12.718 3.37157 12.7171 3.21915C12.7171 2.79404 12.8684 2.21074 13.5284 1.73619C13.6553 1.64305 13.8283 1.58975 14.0096 1.58789L14.0165 1.59283Z" fill="black"/>
</svg>
