<svg width="24" height="31" viewBox="0 0 24 31" fill="none" xmlns="http://www.w3.org/2000/svg">
<g clip-path="url(#clip0_1122_614)">
<path d="M23.3146 20.8154L20.4236 17.9254C21.2161 16.7896 21.6845 15.4117 21.6845 13.9227C21.6845 10.054 18.5483 6.91785 14.6796 6.91785C10.811 6.91785 7.6748 10.054 7.6748 13.9227C7.6748 17.7913 10.811 20.9275 14.6796 20.9275C16.1687 20.9275 17.5466 20.4592 18.6824 19.6666L21.5723 22.5566C22.0537 23.0379 22.8332 23.0379 23.3146 22.5566C23.7949 22.0763 23.7949 21.2967 23.3146 20.8154ZM14.6796 18.9261C11.9167 18.9261 9.67619 16.6856 9.67619 13.9227C9.67619 11.1598 11.9167 8.91923 14.6796 8.91923C17.4425 8.91923 19.683 11.1598 19.683 13.9227C19.683 16.6856 17.4425 18.9261 14.6796 18.9261Z" fill="#1400FF"/>
</g>
<line x1="0.536133" y1="0.9646" x2="0.536133" y2="30.0423" stroke="#888888"/>
<defs>
<clipPath id="clip0_1122_614">
<rect width="16.5527" height="18.2316" fill="white" transform="translate(7.39844 5.80188)"/>
</clipPath>
</defs>
</svg>
